<svg width="450" height="389" viewBox="0 0 450 389" fill="none" xmlns="http://www.w3.org/2000/svg">
<g clip-path="url(#clip0_226_2)">
<path d="M427.901 364.444H394.779V366.815H427.901V364.444Z" fill="#EBEBEB"/>
<path d="M309.22 339.379H300.527V339.639H309.22V339.379Z" fill="#EBEBEB"/>
<path d="M53.652 276.59H10.459V272.397H53.652V276.59Z" fill="#EBEBEB"/>
<path d="M203.147 333.032H109.471V333.293H203.147V333.032Z" fill="#EBEBEB"/>
<path d="M132.367 86.922C144.662 86.9563 179.137 92.1641 179.137 72.8882C179.137 56.5093 162.288 57.7147 162.288 57.7147C162.288 57.7147 162.775 43.5237 147.763 41.6365C132.367 39.7015 130.043 55.0343 130.043 55.0343C130.043 55.0343 103.318 45.2704 107.384 69.7717C107.384 69.7717 92.5693 67.0476 92.5693 78.0783C92.5693 90.406 120.456 86.8897 132.367 86.922Z" fill="#F0F0F0"/>
<path d="M116.876 232.684C141.832 232.762 211.805 244.691 211.805 200.539C211.805 163.024 177.607 165.785 177.607 165.785C177.607 165.785 178.595 133.282 148.126 128.96C116.876 124.526 112.159 159.647 112.159 159.647C112.159 159.647 57.9141 137.284 66.1691 193.403C66.1691 193.403 36.0981 187.165 36.0981 212.429C36.0981 240.662 92.7022 232.608 116.876 232.684Z" fill="#F5F5F5"/>
<path d="M210.095 236.591C196.289 236.634 157.579 243.234 157.579 218.808C157.579 198.054 176.498 199.582 176.498 199.582C176.498 199.582 175.951 181.601 192.807 179.21C210.095 176.758 212.704 196.187 212.704 196.187C212.704 196.187 242.713 183.815 238.146 214.861C238.146 214.861 254.781 211.41 254.781 225.387C254.782 241.005 223.469 236.55 210.095 236.591Z" fill="#F0F0F0"/>
<path d="M287.146 134.266C300.916 134.303 339.525 139.798 339.525 119.456C339.525 102.171 320.655 103.443 320.655 103.443C320.655 103.443 321.2 88.4687 304.388 86.4774C287.145 84.4351 284.542 100.616 284.542 100.616C284.542 100.616 254.611 90.3133 259.166 116.169C259.166 116.169 242.574 113.295 242.574 124.934C242.575 137.942 273.807 134.231 287.146 134.266Z" fill="#F0F0F0"/>
<path d="M347.474 15.7046L367.835 84.2817L380.038 94.3745C380.038 94.3745 386.474 122.411 386.401 120.619C386.328 118.828 385.664 87.5083 385.662 87.4165L388.822 61.7866C388.819 61.7697 388.491 59.1325 387.961 55.1333L388.108 55.939L397.28 66.729L411.05 204.351L426.771 229.814L433.381 319.268L246.09 319.678L274.768 202.338L315.405 162.021L323.011 213.055L333.245 155.002L344.867 174.795L342.344 106.552L344.363 84.7192L351.181 99.2124L346.454 15.6802L347.474 15.7046Z" fill="#EBEBEB"/>
<path d="M411.05 204.351L415.83 227.541L426.771 229.814L411.05 204.351Z" fill="#F5F5F5"/>
<path d="M334.064 273C355.937 273.069 417.264 283.524 417.264 244.827C417.264 211.947 387.291 214.368 387.291 214.368C387.291 214.368 388.157 185.881 361.453 182.093C334.064 178.208 329.93 208.989 329.93 208.989C329.93 208.989 282.387 189.389 289.622 238.574C289.622 238.574 263.267 233.106 263.267 255.25C263.266 279.993 312.876 272.933 334.064 273Z" fill="#F5F5F5"/>
<path d="M81.5224 312.039H74.8555V312.371H81.5224V312.039Z" fill="#EBEBEB"/>
<path d="M230.22 360.004C342.949 360.004 434.334 353.274 434.334 344.971C434.334 336.669 342.949 329.938 230.22 329.938C117.492 329.938 26.1074 336.669 26.1074 344.971C26.1074 353.274 117.492 360.004 230.22 360.004Z" fill="#F5F5F5"/>
<path d="M276.865 179.71H217.695V339.741H276.865V179.71Z" fill="#407BFF"/>
<path opacity="0.2" d="M234.4 179.555H217.68V339.773H234.4V179.555Z" fill="black"/>
<path d="M217.616 243.71H158.446V339.74H217.616V243.71Z" fill="#407BFF"/>
<path opacity="0.2" d="M176.226 243.71H158.446V339.64H176.226V243.71Z" fill="black"/>
<path d="M158.4 264.1H99.23V339.74H158.4V264.1Z" fill="#407BFF"/>
<path opacity="0.2" d="M116.83 264.1H99.23V339.64H116.83V264.1Z" fill="black"/>
<path d="M99.2119 284.494H40.0439V339.742H99.2119V284.494Z" fill="#407BFF"/>
<path opacity="0.2" d="M56.7659 284.439H40.0459V339.639H56.7659V284.439Z" fill="black"/>
<path d="M200.918 56.0809C198.108 59.4779 195.214 62.8059 192.318 66.1289L190.129 68.6079L188.165 70.7979C187.357 71.7509 186.825 72.9469 186.636 74.2499L185.977 80.7049C185.756 82.8949 185.543 85.0839 185.286 87.2729C184.803 91.6499 184.3 96.0259 183.713 100.398C183.507 101.931 182.097 103.006 180.565 102.8C179.213 102.618 178.218 101.499 178.143 100.186C177.889 95.7859 177.722 91.3899 177.573 86.9959C177.483 84.7979 177.438 82.6019 177.384 80.4059L177.235 73.7039C177.276 70.6209 178.294 67.5209 180.057 64.9189L182.234 61.9909L184.207 59.3689C186.86 55.8899 189.516 52.4179 192.255 49.0129C194.191 46.6069 197.71 46.2259 200.116 48.1619C202.522 50.0979 202.903 53.6169 200.967 56.0229C200.956 56.0339 200.928 56.0689 200.918 56.0809Z" fill="#407BFF"/>
<path d="M177.449 100.692L173.794 106.897L182.208 107.751L183.689 101.451C183.864 100.705 183.385 99.952 182.629 99.822C181.234 99.583 179.052 99.484 177.449 100.692Z" fill="#CB7A63"/>
<path d="M173.794 106.897L174.178 109.092C174.367 110.177 175.311 110.967 176.412 110.964L179.152 110.957C179.987 110.955 180.752 110.493 181.144 109.756L182.208 107.751L173.794 106.897Z" fill="#CB7A63"/>
<path d="M176.854 96.0399L184.953 96.3169L184.431 101.155L177.59 100.627L176.854 96.0399Z" fill="#407BFF"/>
<path opacity="0.3" d="M176.854 96.0399L184.953 96.3169L184.431 101.155L177.59 100.627L176.854 96.0399Z" fill="white"/>
<path d="M185.022 146.837L183.691 148.837L182.673 146.771L185.098 115.373C185.483 110.381 183.8 106.28 177.59 106.129C171.782 105.988 168.257 109.956 167.852 114.939L165.309 146.28L163.918 148.274L162.969 146.214L165.528 114.88C166.001 109.087 168.572 104.439 177.706 104.659C186.856 104.88 187.876 109.625 187.43 115.431L185.022 146.837Z" fill="#263238"/>
<path d="M159.285 125.658L157.679 125.65C154.335 125.634 151.501 128.109 151.067 131.425L148.106 154.052L158.524 154.423L159.285 125.658Z" fill="#263238"/>
<path opacity="0.2" d="M159.285 125.658L157.679 125.65C154.335 125.634 151.501 128.109 151.067 131.425L148.106 154.052L158.524 154.423L159.285 125.658Z" fill="white"/>
<path d="M188.7 147.102L186.346 147.036L186.575 115.638C186.611 110.646 184.641 106.545 178.421 106.394C172.603 106.253 169.355 110.221 169.299 115.204L168.947 146.545L166.602 146.479L166.97 115.145C167.038 109.352 169.284 104.704 178.433 104.924C187.599 105.145 188.95 109.89 188.911 115.696L188.7 147.102Z" fill="#263238"/>
<path d="M199.741 155.648L153.436 154.274L153.883 130.932C153.927 127.942 156.345 125.583 159.285 125.66L192.998 126.542C196.806 126.642 199.881 129.851 199.865 133.716L199.741 155.648Z" fill="#263238"/>
<path opacity="0.4" d="M194.61 155.495L158.525 154.424C155.713 154.341 153.47 151.941 153.512 149.068L153.883 130.931C153.927 127.941 156.345 125.582 159.285 125.659L192.998 126.541C196.806 126.641 199.881 129.85 199.865 133.715L199.763 150.418C199.751 153.304 197.443 155.579 194.61 155.495Z" fill="white"/>
<g opacity="0.3">
<path d="M188.7 147.102L187.509 149.102L186.347 147.036L186.576 115.638C186.612 110.646 184.642 106.545 178.422 106.394C172.604 106.253 169.356 110.221 169.3 115.204L168.948 146.545L167.697 148.539L166.604 146.478L166.972 115.144C167.04 109.351 169.286 104.703 178.435 104.923C187.601 105.144 188.952 109.889 188.913 115.695L188.7 147.102Z" fill="white"/>
</g>
<path d="M169.744 134.434L165.885 134.329L165.902 132.876L169.76 132.98L169.744 134.434Z" fill="#263238"/>
<path d="M169.64 143.855L165.772 143.747L165.79 142.288L169.656 142.395L169.64 143.855Z" fill="#263238"/>
<path d="M189.576 134.969L185.701 134.865L185.712 133.408L189.585 133.512L189.576 134.969Z" fill="#263238"/>
<path d="M189.514 144.41L185.631 144.302L185.642 142.839L189.523 142.947L189.514 144.41Z" fill="#263238"/>
<path d="M182.193 135.598L173.907 135.374L173.938 132.265L182.218 132.487L182.193 135.598Z" fill="white"/>
<path d="M217.941 20.992C218.26 20.931 218.599 21.263 218.703 21.745C218.806 22.227 218.639 22.679 218.321 22.74C218.002 22.801 217.663 22.469 217.56 21.987C217.43 21.489 217.622 21.053 217.941 20.992Z" fill="#263238"/>
<path d="M217.998 21.396C218.324 21.244 218.623 20.904 218.754 20.569C218.475 20.83 218.092 20.975 217.71 20.966C217.856 21.048 217.99 21.228 217.998 21.396Z" fill="#263238"/>
<path d="M218.636 26.29C219.476 26.325 220.287 25.986 220.853 25.365C219.628 24.301 218.555 23.076 217.661 21.722L218.636 26.29Z" fill="#B74D3C"/>
<path d="M215.263 20.203C215.726 19.622 216.442 19.3 217.184 19.339C217.215 19.349 217.247 19.354 217.28 19.353C217.443 19.35 217.572 19.215 217.569 19.052C217.566 18.889 217.431 18.76 217.269 18.763C216.341 18.688 215.434 19.066 214.835 19.779C214.789 19.832 214.765 19.9 214.765 19.971C214.765 20.134 214.897 20.266 215.06 20.266C215.133 20.272 215.205 20.249 215.263 20.203Z" fill="#263238"/>
<path d="M212.218 49.103C203.899 49.192 202.624 44.664 202.624 44.664C205.095 42.238 205.218 37.798 204.693 33.84C205.33 34.735 206.124 35.517 207.164 36.21C209.154 37.518 213.471 35.416 213.471 35.416C213.482 35.416 213.471 36.154 213.527 37.216C213.661 39.81 214.231 44.361 216.591 45.066C216.591 45.066 221.388 49.003 212.218 49.103Z" fill="#CB7A63"/>
<path d="M213.593 36.0911C213.505 36.4731 213.416 36.8561 213.363 37.2611C213.329 37.2841 213.294 37.2961 213.259 37.2971C211.311 37.7811 209.157 37.5151 207.167 36.2071C206.119 35.5131 205.325 34.7361 204.691 33.8411C204.565 32.8371 204.381 31.8561 204.197 30.9561L213.256 35.9101L213.593 36.0911Z" fill="#CB7A63"/>
<path d="M219.554 29.2989C219.495 32.3749 217.812 34.9709 215.458 36.3829H215.446C215.435 36.3949 215.423 36.3949 215.411 36.3949C214.779 36.7949 214.089 37.0799 213.363 37.2609C213.329 37.2839 213.294 37.2959 213.259 37.2969C211.311 37.7809 209.157 37.5149 207.167 36.2069C206.119 35.5129 205.325 34.7359 204.691 33.8409C203.06 31.6039 202.38 28.6179 201.214 24.4219C200.854 23.1889 200.782 21.8839 201.011 20.6209C201.829 16.1039 206.155 13.1089 210.661 13.9269C216.984 15.0499 219.678 23.6789 219.554 29.2989Z" fill="#CB7A63"/>
<path opacity="0.2" d="M215.003 36.5459C214.421 36.9149 214.131 37.0599 213.527 37.2169C213.471 36.1549 213.483 35.4169 213.471 35.4169C213.527 34.4889 213.594 33.5609 213.594 33.5609C213.594 33.5939 214.567 36.5459 215.003 36.5459Z" fill="black"/>
<path d="M217.369 17.954C216.692 19.03 214.56 19.94 214.632 19.69C214.999 18.797 214.931 17.083 213.824 17.484C214.13 18.167 215.048 23.302 214.632 23.925C214.404 24.266 214.189 28.374 212.44 31.996C211.045 34.886 211.045 35.782 211.045 35.782L205.366 36.878C203.24 36.612 201.26 33.896 201.085 33.595C200.343 32.318 198.074 30.641 196.894 29.754C196.384 29.37 195.985 28.805 195.769 28.199C195.38 27.109 196.175 23.181 196.348 21.334C196.597 18.677 197.992 16.219 201.846 14.641C204.229 13.665 206.234 11.524 208.665 10.677C211.097 9.83 213.989 9.86799 216.043 11.421C217.053 12.185 219.066 15.257 217.369 17.954Z" fill="#263238"/>
<path d="M214.402 21.694C216.152 22.207 217.064 24.785 217.139 26.423C217.224 28.232 216.016 29.375 214.439 28.164C213.251 27.231 212.403 25.934 212.024 24.472C211.596 22.699 212.652 21.18 214.402 21.694Z" fill="#CB7A63"/>
<path d="M216.506 27.718C216.506 28.14 216.164 28.482 215.742 28.482C215.32 28.482 214.978 28.14 214.978 27.718C214.978 27.296 215.32 26.954 215.742 26.954C216.164 26.954 216.506 27.296 216.506 27.718Z" fill="#407BFF"/>
<path opacity="0.3" d="M216.506 27.718C216.506 28.14 216.164 28.482 215.742 28.482C215.32 28.482 214.978 28.14 214.978 27.718C214.978 27.296 215.32 26.954 215.742 26.954C216.164 26.954 216.506 27.296 216.506 27.718Z" fill="white"/>
<path d="M200.236 47.663C200.236 47.663 201.529 43.674 203.478 42.414C205.428 41.154 213.987 42.461 215.328 42.986C216.669 43.511 218.023 46.602 218.023 46.602L200.236 47.663Z" fill="#407BFF"/>
<path opacity="0.3" d="M200.236 47.663C200.236 47.663 201.529 43.674 203.478 42.414C205.428 41.154 213.987 42.461 215.328 42.986C216.669 43.511 218.023 46.602 218.023 46.602L200.236 47.663Z" fill="white"/>
<path d="M219.781 45.959C218.449 45.74 218.082 45.539 216.556 45.419C211.964 45.203 207.362 45.253 202.776 45.568C201.101 45.688 199.49 46.012 197.891 46.395C194.606 47.184 192.391 50.245 192.635 53.59C193.317 62.952 196.084 68.445 196.492 74.608C197.305 86.887 195.346 95.496 195.013 98.362L201.308 99.318C212.552 99.051 220.017 96.634 226.205 94.002C226.205 94.002 224.583 79.157 226.151 73.808C230.436 59.194 227.654 56.882 226.809 52.698C226.105 49.22 223.307 46.537 219.781 45.959Z" fill="#407BFF"/>
<path opacity="0.1" d="M226.151 73.804C225.637 75.548 225.469 78.299 225.469 81.206C225.469 87.244 226.207 93.998 226.207 93.998C220.023 96.637 212.554 99.052 201.305 99.32L195.01 98.358C195.345 95.495 197.302 86.886 196.497 74.608C196.083 68.447 193.322 62.957 192.639 53.586C192.393 50.243 194.607 47.179 197.894 46.396C199.493 46.005 201.103 45.692 202.78 45.569C207.365 45.256 211.96 45.2 216.556 45.412C218.077 45.535 218.446 45.736 219.776 45.96C223.309 46.541 226.105 49.214 226.809 52.703C227.111 54.201 227.67 55.465 228.05 57.142C228.519 59.177 228.743 61.827 227.96 66.266C227.604 68.347 227.023 70.818 226.151 73.804Z" fill="white"/>
<path d="M221.59 45.506C223.888 45.83 226.165 46.289 228.453 46.675C230.733 47.115 233.011 47.567 235.283 48.056L234.46 47.991C235.474 48.036 236.366 48.115 236.929 48.15C237.201 48.17 237.392 48.165 237.321 48.206C237.307 48.229 237.174 48.271 237.019 48.371C236.825 48.475 236.591 48.644 236.337 48.904C235.813 49.429 235.603 50.132 235.618 50.34C235.614 50.567 235.686 50.514 235.698 50.338C235.737 49.977 235.66 49.287 235.511 48.577L235.615 48.872C234.462 45.544 233.367 42.193 232.364 38.805C231.391 35.406 230.456 31.992 229.792 28.472C229.537 27.121 230.426 25.818 231.778 25.563C232.812 25.368 233.819 25.848 234.348 26.686C236.253 29.72 237.886 32.86 239.481 36.015C241.047 39.182 242.52 42.385 243.935 45.61L244.039 45.905C244.426 46.925 244.804 47.998 245.031 49.441C245.135 50.165 245.208 51.027 245.043 52.147C244.89 53.242 244.29 54.811 243.108 55.964C242.53 56.543 241.905 56.95 241.31 57.262C240.742 57.547 240.183 57.749 239.727 57.873C238.775 58.136 238.06 58.213 237.428 58.278C236.18 58.396 235.259 58.401 234.462 58.448L234.334 58.456L233.638 58.383C231.327 58.141 229.021 57.863 226.717 57.572C224.422 57.228 222.115 56.956 219.83 56.549C216.79 56.008 214.764 53.104 215.306 50.063C215.835 47.093 218.628 45.093 221.59 45.506Z" fill="#407BFF"/>
<g opacity="0.1">
<path d="M221.59 45.506C223.888 45.83 226.165 46.289 228.453 46.675C230.733 47.115 233.011 47.567 235.283 48.056L234.46 47.991C235.474 48.036 236.366 48.115 236.929 48.15C237.201 48.17 237.392 48.165 237.321 48.206C237.307 48.229 237.174 48.271 237.019 48.371C236.825 48.475 236.591 48.644 236.337 48.904C235.813 49.429 235.603 50.132 235.618 50.34C235.614 50.567 235.686 50.514 235.698 50.338C235.737 49.977 235.66 49.287 235.511 48.577L235.615 48.872C234.462 45.544 233.367 42.193 232.364 38.805C231.391 35.406 230.456 31.992 229.792 28.472C229.537 27.121 230.426 25.818 231.778 25.563C232.812 25.368 233.819 25.848 234.348 26.686C236.253 29.72 237.886 32.86 239.481 36.015C241.047 39.182 242.52 42.385 243.935 45.61L244.039 45.905C244.426 46.925 244.804 47.998 245.031 49.441C245.135 50.165 245.208 51.027 245.043 52.147C244.89 53.242 244.29 54.811 243.108 55.964C242.53 56.543 241.905 56.95 241.31 57.262C240.742 57.547 240.183 57.749 239.727 57.873C238.775 58.136 238.06 58.213 237.428 58.278C236.18 58.396 235.259 58.401 234.462 58.448L234.334 58.456L233.638 58.383C231.327 58.141 229.021 57.863 226.717 57.572C224.422 57.228 222.115 56.956 219.83 56.549C216.79 56.008 214.764 53.104 215.306 50.063C215.835 47.093 218.628 45.093 221.59 45.506Z" fill="white"/>
</g>
<path d="M262.943 23.978L292.924 23.059L292.464 13.667L262.543 15.637L262.943 23.978Z" fill="#407BFF"/>
<path d="M240.282 24.3379L264.526 23.5579L264.157 15.8569L239.956 17.4179L240.282 24.3379Z" fill="#407BFF"/>
<path d="M261.325 23.7549L262.914 23.9229L262.52 15.6949L260.955 16.0149L261.325 23.7549Z" fill="#263238"/>
<path opacity="0.2" d="M261.325 23.7549L262.914 23.9229L262.52 15.6949L260.955 16.0149L261.325 23.7549Z" fill="black"/>
<path d="M262.916 23.979L264.544 23.929L264.141 15.532L262.517 15.639L262.916 23.979Z" fill="#263238"/>
<path d="M236.518 23.1999L238.924 24.3169L238.606 17.5699L236.316 18.9129L236.518 23.1999Z" fill="#263238"/>
<path d="M224.198 23.1159L231.327 22.7449L231.179 19.5869L224.053 20.0129L224.198 23.1159Z" fill="#263238"/>
<path opacity="0.2" d="M224.198 23.1159L231.327 22.7449L231.179 19.5869L224.053 20.0129L224.198 23.1159Z" fill="black"/>
<path d="M230.352 23.383L238.284 23.078L238.076 18.658L230.153 19.127L230.352 23.383Z" fill="#263238"/>
<path opacity="0.2" d="M236.518 23.1999L238.924 24.3169L238.606 17.5699L236.316 18.9129L236.518 23.1999Z" fill="black"/>
<path d="M238.967 24.381L240.282 24.338L239.956 17.418L238.643 17.503L238.967 24.381Z" fill="#263238"/>
<path d="M291.903 23.0899L296.606 22.9219L296.144 13.4939L291.445 13.7339L291.903 23.0899Z" fill="#263238"/>
<path d="M293.989 23.7569L299.989 23.5889L300.138 23.1739C301.42 19.6169 301.165 15.6869 299.434 12.3259L293.448 12.7399L293.579 13.0539C295.001 16.4559 295.147 20.2569 293.989 23.7569Z" fill="#407BFF"/>
<g opacity="0.4">
<path d="M287.598 14.7088L290.025 14.5588L290.074 15.5938L287.609 15.7358C287.55 15.3978 287.57 15.0518 287.598 14.7088Z" fill="white"/>
<path d="M286.13 14.8239C286.104 15.1659 286.088 15.5089 286.141 15.8449L265.096 17.0369L265.045 16.1019L286.13 14.8239Z" fill="white"/>
</g>
<g opacity="0.4">
<path d="M240.469 17.9639L240.513 18.8029L260.286 17.6289L260.243 16.7109L240.469 17.9639Z" fill="white"/>
</g>
<g opacity="0.4">
<path d="M293.978 13.0639L294.037 14.1119L298.727 13.8029L298.676 12.7339L293.978 13.0639Z" fill="white"/>
</g>
<path opacity="0.3" d="M299.384 22.2039C299.354 22.5619 299.336 22.9209 299.393 23.2749L294.536 23.4409L294.477 22.3919L299.384 22.2039Z" fill="black"/>
<path opacity="0.3" d="M290.686 21.6189C290.658 21.9659 290.642 22.3139 290.696 22.6559L264.954 23.5759L264.903 22.6419L290.686 21.6189Z" fill="black"/>
<path opacity="0.3" d="M260.049 22.5229C260.029 22.8289 260.017 23.1379 260.061 23.4409L240.934 24.1129L240.89 23.2719L260.049 22.5229Z" fill="black"/>
<path d="M222.595 20.133L222.657 23.153C222.667 23.666 223.132 24.075 223.697 24.065L226.148 24.023L226.046 19.075L223.596 19.165C223.032 19.187 222.585 19.619 222.595 20.133Z" fill="#407BFF"/>
<path d="M235.265 28.5109L236.196 22.8829C236.235 22.6489 236.243 22.4109 236.222 22.1759L235.955 19.1929C235.911 18.8069 235.64 18.4279 235.22 18.2989L230.724 18.2469C230.131 18.0599 229.479 18.3439 229.282 18.8719L228.475 22.5589C228.414 22.8349 228.42 23.1219 228.492 23.3949L229.826 28.4719C229.955 28.8959 230.346 29.2259 230.83 29.3189L233.768 29.3449C234.46 29.4779 235.124 29.1089 235.265 28.5109Z" fill="#CE7A63"/>
<path d="M237.909 30.882L230.264 33.571L228.991 28.874L235.555 26.877L237.909 30.882Z" fill="#407BFF"/>
<path opacity="0.3" d="M237.909 30.882L230.264 33.571L228.991 28.874L235.555 26.877L237.909 30.882Z" fill="white"/>
<path opacity="0.2" d="M227.962 66.267L222.103 55.208L228.052 57.142C228.521 59.178 228.745 61.828 227.962 66.267Z" fill="black"/>
<path d="M258.167 158.075L256.955 173.096L263.792 173.226L265.668 157.752L258.167 158.075Z" fill="#CE7A63"/>
<path d="M264.875 171.174L257.076 171.332C256.782 171.338 256.529 171.561 256.468 171.871L255.125 178.711C255.002 179.317 255.359 179.911 255.922 180.038C255.994 180.054 256.068 180.062 256.142 180.062C258.953 179.953 261.451 179.737 264.952 179.671C269.082 179.589 268.04 180.14 272.896 180.116C275.822 180.098 276.323 176.517 275.08 176.367C269.394 175.715 268.787 173.886 266.575 171.748C266.094 171.339 265.489 171.135 264.875 171.174Z" fill="#263238"/>
<path d="M183.509 222.446L180.744 236.242L188.095 238.487L191.636 224.396L183.509 222.446Z" fill="#CE7A63"/>
<path d="M222.84 94.604C222.84 94.604 212.377 155.668 206.694 173.639C202.648 186.435 191.794 228.299 191.794 228.299L181.948 226.116C181.948 226.116 180.847 197.62 186.323 182.911C188.191 177.893 190.629 173.366 191.289 170.255C194.109 156.964 188.297 132.852 190.866 114.868C192.259 105.12 195.234 98.168 195.234 98.168L222.84 94.604Z" fill="#263238"/>
<path d="M206.694 173.639C202.648 186.435 191.794 228.299 191.794 228.299L181.948 226.116C181.948 226.116 180.847 197.62 186.323 182.911C188.191 177.893 190.629 173.366 191.289 170.255C194.109 156.964 188.297 132.852 190.866 114.868C192.259 105.12 195.234 98.168 195.234 98.168" fill="#263238"/>
<path opacity="0.2" d="M210.011 113.479L215.278 134.161L219.131 114.378L210.011 113.479Z" fill="black"/>
<path d="M266.148 165.28L256.528 165.59C256.528 165.59 257.238 153 257.238 134.64C257.238 131.81 257.678 129.02 258.298 126.52C259.668 120.91 261.888 116.73 261.888 116.73C261.888 116.73 260.858 116.79 259.098 116.87C253.658 117.15 219.936 118.892 219.276 118.842C218.776 118.792 215.712 119.198 210.218 116.52C200.01 111.543 199.908 97.57 199.908 97.57L226.198 94C226.198 94.02 226.628 94.08 232.958 94.19C252.148 94.52 275.731 95.263 279.87 101.851C285.691 111.119 266.148 165.28 266.148 165.28Z" fill="#263238"/>
<path d="M188.463 234.916L180.396 235.025C180.092 235.029 179.843 235.254 179.797 235.565L178.793 242.46C178.7 243.071 179.103 243.673 179.693 243.805C179.769 243.822 179.845 243.831 179.922 243.831C182.826 243.739 185.402 243.537 189.023 243.493C193.296 243.437 192.247 243.987 197.275 243.994C200.304 243.995 200.62 240.383 199.325 240.223C193.4 239.528 192.667 237.678 190.256 235.506C189.736 235.09 189.098 234.88 188.463 234.916Z" fill="#263238"/>
<path opacity="0.2" d="M258.297 126.52C259.667 120.91 261.887 116.73 261.887 116.73C261.887 116.73 260.857 116.79 259.097 116.87C259.017 116.84 258.937 116.82 258.837 116.82L265.849 116.23L258.297 126.52Z" fill="black"/>
</g>
<defs>
<clipPath id="clip0_226_2">
<rect width="450" height="389" fill="white"/>
</clipPath>
</defs>
</svg>
